<svg preserveAspectRatio="none" overflow="visible" style="display: block;" width="100" height="100" viewBox="0 0 100 100" fill="none" xmlns="http://www.w3.org/2000/svg">
<g id="Frame" filter="url(#filter0_d_0_7)">
<g id="Vector" filter="url(#filter1_d_0_7)">
<path d="M33.3268 10C20.4635 10 10 20.4732 10 33.3398V66.6732C10 79.5365 20.4732 90 33.3398 90H66.6732C79.5365 90 90 79.5268 90 66.6602V33.3268C90 20.4635 79.5268 10 66.6602 10H33.3268ZM73.3333 23.3333C75.1733 23.3333 76.6667 24.8267 76.6667 26.6667C76.6667 28.5067 75.1733 30 73.3333 30C71.4933 30 70 28.5067 70 26.6667C70 24.8267 71.4933 23.3333 73.3333 23.3333ZM50 30C61.03 30 70 38.97 70 50C70 61.03 61.03 70 50 70C38.97 70 30 61.03 30 50C30 38.97 38.97 30 50 30ZM50 36.6667C46.4638 36.6667 43.0724 38.0714 40.5719 40.5719C38.0714 43.0724 36.6667 46.4638 36.6667 50C36.6667 53.5362 38.0714 56.9276 40.5719 59.4281C43.0724 61.9286 46.4638 63.3333 50 63.3333C53.5362 63.3333 56.9276 61.9286 59.4281 59.4281C61.9286 56.9276 63.3333 53.5362 63.3333 50C63.3333 46.4638 61.9286 43.0724 59.4281 40.5719C56.9276 38.0714 53.5362 36.6667 50 36.6667Z" fill="white"/>
</g>
</g>
<defs>
<filter id="filter0_d_0_7" x="0" y="0" width="104" height="104" filterUnits="userSpaceOnUse" color-interpolation-filters="sRGB">
<feFlood flood-opacity="0" result="BackgroundImageFix"/>
<feColorMatrix in="SourceAlpha" type="matrix" values="0 0 0 0 0 0 0 0 0 0 0 0 0 0 0 0 0 0 127 0" result="hardAlpha"/>
<feOffset dx="4" dy="4"/>
<feComposite in2="hardAlpha" operator="out"/>
<feColorMatrix type="matrix" values="0 0 0 0 0.225962 0 0 0 0 0.225962 0 0 0 0 0.225962 0 0 0 1 0"/>
<feBlend mode="normal" in2="BackgroundImageFix" result="effect1_dropShadow_0_7"/>
<feBlend mode="normal" in="SourceGraphic" in2="effect1_dropShadow_0_7" result="shape"/>
</filter>
<filter id="filter1_d_0_7" x="10" y="10" width="84" height="84" filterUnits="userSpaceOnUse" color-interpolation-filters="sRGB">
<feFlood flood-opacity="0" result="BackgroundImageFix"/>
<feColorMatrix in="SourceAlpha" type="matrix" values="0 0 0 0 0 0 0 0 0 0 0 0 0 0 0 0 0 0 127 0" result="hardAlpha"/>
<feOffset dx="4" dy="4"/>
<feComposite in2="hardAlpha" operator="out"/>
<feColorMatrix type="matrix" values="0 0 0 0 0.225962 0 0 0 0 0.225962 0 0 0 0 0.225962 0 0 0 1 0"/>
<feBlend mode="normal" in2="BackgroundImageFix" result="effect1_dropShadow_0_7"/>
<feBlend mode="normal" in="SourceGraphic" in2="effect1_dropShadow_0_7" result="shape"/>
</filter>
</defs>
</svg>
